<?xml version="1.0" standalone="no"?>
<svg xmlns:xlink="http://www.w3.org/1999/xlink" id="wave" style="transform:rotate(180deg); transition: 0.3s" viewBox="0 0 1440 490" version="1.1" xmlns="http://www.w3.org/2000/svg"><defs><linearGradient id="sw-gradient-0" x1="0" x2="0" y1="1" y2="0"><stop stop-color="rgba(81, 0, 189, 1)" offset="0%"/><stop stop-color="rgba(197, 0, 251, 1)" offset="100%"/></linearGradient></defs><path style="transform:translate(0, 0px); opacity:1" fill="url(#sw-gradient-0)" d="M0,98L80,155.2C160,212,320,327,480,326.7C640,327,800,212,960,204.2C1120,196,1280,294,1440,318.5C1600,343,1760,294,1920,269.5C2080,245,2240,245,2400,269.5C2560,294,2720,343,2880,351.2C3040,359,3200,327,3360,334.8C3520,343,3680,392,3840,343C4000,294,4160,147,4320,122.5C4480,98,4640,196,4800,228.7C4960,261,5120,229,5280,212.3C5440,196,5600,196,5760,236.8C5920,278,6080,359,6240,326.7C6400,294,6560,147,6720,81.7C6880,16,7040,33,7200,89.8C7360,147,7520,245,7680,269.5C7840,294,8000,245,8160,220.5C8320,196,8480,196,8640,171.5C8800,147,8960,98,9120,73.5C9280,49,9440,49,9600,106.2C9760,163,9920,278,10080,285.8C10240,294,10400,196,10560,163.3C10720,131,10880,163,11040,196C11200,229,11360,261,11440,277.7L11520,294L11520,490L11440,490C11360,490,11200,490,11040,490C10880,490,10720,490,10560,490C10400,490,10240,490,10080,490C9920,490,9760,490,9600,490C9440,490,9280,490,9120,490C8960,490,8800,490,8640,490C8480,490,8320,490,8160,490C8000,490,7840,490,7680,490C7520,490,7360,490,7200,490C7040,490,6880,490,6720,490C6560,490,6400,490,6240,490C6080,490,5920,490,5760,490C5600,490,5440,490,5280,490C5120,490,4960,490,4800,490C4640,490,4480,490,4320,490C4160,490,4000,490,3840,490C3680,490,3520,490,3360,490C3200,490,3040,490,2880,490C2720,490,2560,490,2400,490C2240,490,2080,490,1920,490C1760,490,1600,490,1440,490C1280,490,1120,490,960,490C800,490,640,490,480,490C320,490,160,490,80,490L0,490Z"/></svg>